# File created by Blade
# Date/Time:  Wed Apr 08 17:31:39 2015
# Frame Rate: 120.000 fps
#------------------------------------------------------
:FULLY-SPECIFIED
:DEGREES
552
root 3.339133 22.983580 -1.484002 -566.674416 -85.687362 381.648625
Spine 219.178635 -1.126473 -1.800733
Head 13.648300 12.284220 2.315304
LeftShoulder 1.602958 19.716679 29.371907
LeftArm 33.073016 -4.242545 -50.973749
LeftForeArm 26.667261 0.000000 38.026771
LeftHand -9.271844 -0.000000 -1.933111
LeftHandThumb1 -26.253704 0.000000 33.147579
RightShoulder -11.607416 -49.253825 -22.799117
RightArm 52.331205 15.352676 33.605748
RightForeArm -8.689793 0.000000 36.062044
RightHand 6.870593 -0.000000 -2.862130
RightHandThumb1 -24.326973 -0.000000 -32.862282
LeftUpLeg 125.585557 -10.528998 -13.414720
LeftLeg 112.129743 -0.000000 -0.000000
LeftFoot -31.877558 -3.721463 -10.668778
LeftToeBase -12.481467 -0.000000 0.000000
RightUpLeg 130.566599 17.031913 15.164672
RightLeg 115.399775 -0.000000 -0.000000
RightFoot -36.218486 14.258829 12.182271
RightToeBase -13.390880 -0.000000 0.000000
553
root 3.279004 22.959385 -1.456576 -566.734948 -85.834139 381.899713
Spine 218.802668 -1.194692 -1.807552
Head 13.624907 12.265566 2.321985
LeftShoulder 1.448997 19.657594 29.283101
LeftArm 32.699489 -3.930644 -52.330406
LeftForeArm 26.956266 -0.000000 38.277297
LeftHand -9.309183 -0.000000 -1.813230
LeftHandThumb1 -26.253704 0.000000 33.147579
RightShoulder -11.980493 -49.451826 -22.455725
RightArm 52.530680 15.005385 33.950813
RightForeArm -8.949461 -0.000000 36.404858
RightHand 6.917233 -0.000000 -2.606157
RightHandThumb1 -24.326973 -0.000000 -32.862282
LeftUpLeg 125.457206 -10.535360 -13.446945
LeftLeg 112.381246 -0.000000 -0.000000
LeftFoot -31.860640 -3.704393 -10.728199
LeftToeBase -12.817815 -0.000000 0.000000
RightUpLeg 130.410797 16.836133 15.166683
RightLeg 115.522527 -0.000000 -0.000000
RightFoot -36.213726 14.353218 12.266993
RightToeBase -13.531990 -0.000000 0.000000
554
root 3.222967 22.932368 -1.429801 -567.114903 -85.940697 382.381056
Spine 218.486406 -1.245021 -1.803047
Head 13.647294 12.279394 2.327036
LeftShoulder 1.304685 19.705458 29.166801
LeftArm 32.415524 -3.606525 -53.602973
LeftForeArm 27.226281 0.000000 38.522788
LeftHand -9.445400 -0.000000 -1.669912
LeftHandThumb1 -26.253704 0.000000 33.147579
RightShoulder -12.387214 -49.703154 -22.022044
RightArm 52.612122 14.609269 33.983551
RightForeArm -9.029503 0.000000 36.831554
RightHand 6.849320 -0.000000 -2.624317
RightHandThumb1 -24.326973 -0.000000 -32.862282
LeftUpLeg 125.401468 -10.502326 -13.476985
LeftLeg 112.638844 -0.000000 -0.000000
LeftFoot -31.836854 -3.797416 -10.856817
LeftToeBase -13.077832 -0.000000 0.000000
RightUpLeg 130.333572 16.638285 15.227286
RightLeg 115.670128 -0.000000 -0.000000
RightFoot -36.216539 14.368965 12.308045
RightToeBase -13.664417 -0.000000 0.000000
555
root 3.165348 22.907159 -1.406996 -567.879355 -86.037917 383.298884
Spine 218.132158 -1.298583 -1.765375
Head 13.653099 12.279444 2.314339
LeftShoulder 1.154382 19.765149 29.052878
LeftArm 32.130699 -3.209452 -54.767567
LeftForeArm 27.263975 -0.000000 38.786901
LeftHand -9.657990 -0.000000 -1.451468
LeftHandThumb1 -26.253704 0.000000 33.147579
RightShoulder -12.825057 -49.981486 -21.564897
RightArm 52.730526 14.226751 33.966414
RightForeArm -9.052495 -0.000000 37.244253
RightHand 6.797584 -0.000000 -2.595843
RightHandThumb1 -24.326973 -0.000000 -32.862282
LeftUpLeg 125.308858 -10.437435 -13.520092
LeftLeg 112.868585 -0.000000 -0.000000
LeftFoot -31.734515 -4.009030 -11.016184
LeftToeBase -13.473985 -0.000000 0.000000
RightUpLeg 130.227576 16.373318 15.301829
RightLeg 115.809574 -0.000000 -0.000000
RightFoot -36.245895 14.510646 12.504287
RightToeBase -13.695986 -0.000000 0.000000
556
root 3.114300 22.880923 -1.385828 -568.758159 -86.100868 384.264911
Spine 217.834071 -1.311162 -1.714511
Head 13.672527 12.306647 2.296309
LeftShoulder 1.053632 19.865002 28.958903
LeftArm 31.799304 -2.855939 -55.941208
LeftForeArm 27.364348 0.000000 39.093493
LeftHand -9.761219 -0.000000 -1.446910
LeftHandThumb1 -26.253704 0.000000 33.147579
RightShoulder -13.226490 -50.228227 -21.176231
RightArm 52.859298 13.793356 33.957612
RightForeArm -9.173324 0.000000 37.600237
RightHand 6.717518 -0.000000 -2.543326
RightHandThumb1 -24.326973 -0.000000 -32.862282
LeftUpLeg 125.234730 -10.327991 -13.526899
LeftLeg 113.094876 -0.000000 -0.000000
LeftFoot -31.615622 -4.053224 -11.109330
LeftToeBase -13.898688 -0.000000 0.000000
RightUpLeg 130.169334 16.129830 15.419674
RightLeg 115.969432 -0.000000 -0.000000
RightFoot -36.230351 14.662570 12.685669
RightToeBase -13.726179 -0.000000 0.000000
557
root 3.061568 22.856747 -1.363554 -569.021147 -86.135027 384.634345
Spine 217.524273 -1.298241 -1.676091
Head 13.669391 12.316044 2.295838
LeftShoulder 0.930651 20.047808 28.869170
LeftArm 31.579983 -2.552289 -57.093521
LeftForeArm 27.507889 -0.000000 39.354071
LeftHand -9.857144 -0.000000 -1.379743
LeftHandThumb1 -26.253704 0.000000 33.147579
RightShoulder -13.644953 -50.444028 -20.753941
RightArm 52.981553 13.328997 33.921551
RightForeArm -9.314492 0.000000 37.921846
RightHand 6.716743 -0.000000 -2.553470
RightHandThumb1 -24.326973 -0.000000 -32.862282
LeftUpLeg 125.129713 -10.233683 -13.521285
LeftLeg 113.318570 -0.000000 -0.000000
LeftFoot -31.549089 -3.923694 -11.003113
LeftToeBase -14.227832 -0.000000 0.000000
RightUpLeg 130.112910 15.938655 15.516834
RightLeg 116.118669 -0.000000 -0.000000
RightFoot -36.178932 14.752408 12.795983
RightToeBase -13.729342 -0.000000 0.000000
558
root 3.003810 22.837122 -1.345552 -570.206744 -86.116637 386.034476
Spine 217.126474 -1.246983 -1.547337
Head 13.641937 12.353296 2.260163
LeftShoulder 0.806542 20.206002 28.787447
LeftArm 31.340947 -2.268507 -58.286879
LeftForeArm 27.606877 -0.000000 39.591628
LeftHand -9.888401 -0.000000 -1.403895
LeftHandThumb1 -26.253704 0.000000 33.147579
RightShoulder -14.034538 -50.611664 -20.383715
RightArm 53.098970 12.838655 33.858564
RightForeArm -9.409060 -0.000000 38.222504
RightHand 6.726965 -0.000000 -2.575402
RightHandThumb1 -24.326973 -0.000000 -32.862282
LeftUpLeg 124.978831 -10.141557 -13.453608
LeftLeg 113.481744 -0.000000 -0.000000
LeftFoot -31.487810 -3.995819 -11.005849
LeftToeBase -14.488447 -0.000000 0.000000
RightUpLeg 129.944599 15.782857 15.653408
RightLeg 116.281095 -0.000000 -0.000000
RightFoot -36.118638 14.723372 12.918594
RightToeBase -14.580345 -0.000000 0.000000
559
root 2.942899 22.818264 -1.324022 -570.447464 -86.137555 386.515650
Spine 216.699827 -1.188656 -1.462486
Head 13.627155 12.424169 2.255108
LeftShoulder 0.656519 20.395940 28.712373
LeftArm 31.140949 -2.004330 -59.474748
LeftForeArm 27.756692 -0.000000 39.774105
LeftHand -9.949995 -0.000000 -1.435755
LeftHandThumb1 -26.253704 0.000000 33.147579
RightShoulder -14.350618 -50.783735 -20.073234
RightArm 53.223115 12.348693 33.838802
RightForeArm -9.583136 -0.000000 38.513857
RightHand 6.671318 -0.000000 -2.571806
RightHandThumb1 -24.326973 -0.000000 -32.862282
LeftUpLeg 124.762167 -10.128310 -13.470746
LeftLeg 113.691851 -0.000000 -0.000000
LeftFoot -31.288361 -4.255428 -11.157987
LeftToeBase -15.010815 -0.000000 0.000000
RightUpLeg 129.765404 15.650779 15.707444
RightLeg 116.417263 -0.000000 -0.000000
RightFoot -36.092047 14.699227 12.870633
RightToeBase -14.816977 -0.000000 0.000000
560
root 2.885101 22.801313 -1.302331 -571.518150 -86.142649 387.791161
Spine 216.305944 -1.130233 -1.342490
Head 13.605215 12.446178 2.201598
LeftShoulder 0.485143 20.603948 28.591182
LeftArm 30.980697 -1.762625 -60.622697
LeftForeArm 27.878536 -0.000000 39.918664
LeftHand -9.881291 -0.000000 -1.519307
LeftHandThumb1 -26.253704 0.000000 33.147579
RightShoulder -14.661565 -50.957361 -19.778864
RightArm 53.352673 11.858035 33.789187
RightForeArm -9.698520 -0.000000 38.767942
RightHand 6.617430 0.000000 -2.621714
RightHandThumb1 -24.326973 -0.000000 -32.862282
LeftUpLeg 124.620727 -10.115383 -13.418005
LeftLeg 113.857636 -0.000000 -0.000000
LeftFoot -31.195088 -4.369336 -11.164921
LeftToeBase -15.318205 -0.000000 0.000000
RightUpLeg 129.609529 15.497385 15.819154
RightLeg 116.558478 -0.000000 -0.000000
RightFoot -36.050177 14.691259 12.911929
RightToeBase -15.059220 -0.000000 0.000000
561
root 2.837764 22.775980 -1.278780 -571.616579 -86.137404 387.904238
Spine 216.067183 -1.063454 -1.291177
Head 13.601548 12.438779 2.212857
LeftShoulder 0.309743 20.815198 28.490481
LeftArm 30.871641 -1.451513 -61.722561
LeftForeArm 28.008933 -0.000000 39.993775
LeftHand -9.939976 -0.000000 -1.472201
LeftHandThumb1 -26.253704 0.000000 33.147579
RightShoulder -15.069287 -51.212577 -19.315258
RightArm 53.348623 11.363198 33.462980
RightForeArm -9.537163 0.000000 39.206427
RightHand 6.379851 -0.000000 -2.823571
RightHandThumb1 -24.326973 -0.000000 -32.862282
LeftUpLeg 124.601527 -9.998045 -13.446718
LeftLeg 114.060120 -0.000000 -0.000000
LeftFoot -31.128678 -4.497545 -11.200416
LeftToeBase -15.625967 -0.000000 0.000000
RightUpLeg 129.611559 15.340476 15.944764
RightLeg 116.724269 -0.000000 -0.000000
RightFoot -35.940136 14.725119 13.053839
RightToeBase -15.336145 -0.000000 0.000000
562
root 2.786246 22.758272 -1.256669 -571.637709 -86.160429 388.047504
Spine 215.747636 -1.029004 -1.227277
Head 13.560759 12.432228 2.208110
LeftShoulder 0.105585 20.958111 28.370955
LeftArm 30.750151 -1.154213 -62.812109
LeftForeArm 28.095115 0.000000 40.033087
LeftHand -10.107040 -0.000000 -1.416743
LeftHandThumb1 -26.253704 0.000000 33.147579
RightShoulder -15.386654 -51.450385 -18.988575
RightArm 53.511557 10.908766 33.485765
RightForeArm -9.684790 -0.000000 39.395252
RightHand 6.403345 -0.000000 -2.880526
RightHandThumb1 -24.326973 -0.000000 -32.862282
LeftUpLeg 124.513162 -9.963556 -13.474795
LeftLeg 114.242955 -0.000000 -0.000000
LeftFoot -31.025487 -4.660716 -11.260143
LeftToeBase -15.997326 -0.000000 0.000000
RightUpLeg 129.523287 15.208947 15.988904
RightLeg 116.855702 -0.000000 -0.000000
RightFoot -35.850218 14.653135 13.023572
RightToeBase -15.765152 -0.000000 0.000000
563
root 2.731133 22.743833 -1.233859 -572.197224 -86.169302 388.748015
Spine 215.407947 -1.007796 -1.122696
Head 13.523221 12.362722 2.253714
LeftShoulder -0.206002 21.321757 28.191165
LeftArm 30.965772 -0.865949 -63.832179
LeftForeArm 28.199682 -0.000000 39.943650
LeftHand -10.337582 -0.000000 -1.344447
LeftHandThumb1 -26.253704 0.000000 33.147579
RightShoulder -15.673879 -51.641670 -18.651326
RightArm 53.609033 10.469928 33.515584
RightForeArm -9.734231 -0.000000 39.579214
RightHand 6.439516 -0.000000 -2.789911
RightHandThumb1 -24.326973 -0.000000 -32.862282
LeftUpLeg 124.474186 -9.925994 -13.438694
LeftLeg 114.393730 -0.000000 -0.000000
LeftFoot -31.085046 -4.703756 -11.224930
LeftToeBase -16.097632 -0.000000 0.000000
RightUpLeg 129.441512 15.068784 16.084125
RightLeg 116.982862 -0.000000 -0.000000
RightFoot -35.795688 14.678555 13.103651
RightToeBase -15.567943 -0.000000 0.000000
